<mxfile host="app.diagrams.net" modified="2021-11-16T16:30:53.175Z" agent="5.0 (Windows NT 10.0; Win64; x64) AppleWebKit/537.36 (KHTML, like Gecko) Chrome/95.0.4638.69 Safari/537.36" etag="dz_D9zem8BvfdZn0inuF" version="15.6.8" type="github">
  <diagram id="xZUEEhlqR2YgX-Inar-z" name="Page-1">
    <mxGraphModel dx="1038" dy="556" grid="1" gridSize="10" guides="1" tooltips="1" connect="1" arrows="1" fold="1" page="1" pageScale="1" pageWidth="850" pageHeight="1100" math="0" shadow="0">
      <root>
        <mxCell id="0" />
        <mxCell id="1" parent="0" />
        <mxCell id="-1aNArAHK49JRfU5nT5b-1" value="Vehicle" style="shape=image;verticalLabelPosition=bottom;labelBackgroundColor=#ffffff;verticalAlign=top;aspect=fixed;imageAspect=0;image=data:image/png,iVBORw0KGgoAAAANSUhEUgAAAOYAAABYCAYAAADhqou+AAAgAElEQVR4AeydBXRV1/b120KxFkpxK+7uFhyCB4JL8ODu7k5xd3d3h+DuFHe30lIvxeY3fuvcEwJt34NC3+v/e8kYe1zJveees/eea82l5wMF/wXPQPAM/ONm4IN/3BkFn1DwDATPgIKBGbwJgmfgHzgDwcD8By5K8CkFz0AwMIP3QPAM/ANnIBiY/8BFCT6l4BkIBmbwHgiegX/gDAQD8x+4KMGnFDwDwcAM3gPBM/APnIFgYP4DFyX4lIJnIBiYwXsgeAb+gTMQDMx/4KIEn1LwDAQD839sD7x48eJ/7Ir/b15uMDD/b67bW511UDA+e/ZMjOC/f/YMBAPzPa1P0M3/ng75Xg/z3Xff6dChQ7p7965+++03cb7BAH2vU/xeDxYMzPc0nc+fPxfjl19+0ffff6+HDx/qydOn7+nof+0wrrC4deuW2rVrp25du+ngwYMG0N27d+vBgwd2vk//y+f5167u/+9vBQPzPa0vptvZs2c1Z84cDR82TEOGDNGkSZO0fv0GXb5yRU+ePHlPv/R2h7l9+7aaNm2q5s2b69SpU9q0aZOaNWtmr6dPn66jR4/q/r37+umnn4I16NtN7d/66WBgvpfpfaG7d25r+rRpqubnp1w5c8qnZAl5FyygsmXKqF3bNvr+u0fv5Zfe5iBPnzzRrBkz5JUzp9q2aavz587r5IkTqlGtuipXrKgunTurd6/emjt7rg4fOqRvvn6oX37+WXwv6N8LvdCL5y+kYMdR0Gn5W58HA/Odp/eFnj97osMH92vwlwNVsnhR5cmVU1kzZ1S+PLnkW6qkevXo7mz2/7BD9Pat26pTs6ZSJk+uUiV9NHbUaK1bs1brVq9Rm1at1ahBQ00YN17Tp07TgnnztHH9eh06eFBf33+gH7/7Xr/9+vjV2TFwvvpW8Ku/ZwaCgfke5vXbh19r/tw5atywgXJmz6pMGdIrYfy4KlWyuKr7VdH6tWvfw6+8/SGuXb2mfLnzKPwnnyh5kqSqWL68unXuopnTZ2jj+g0aM2qU2rZuo57du2vG1OkaPnSYOrRvpzmzZuvc6TN6cPeevr5/Xz9+/4Oeu55chAsDkLrj7U8t+Bv/ZgaCgflvJuhN/n365An1691bPiWKKUumDEqWJJESJ4yvMqV91LZ1S40eOUJrVq3WD99//yaHe3+feSEtXrhICeLGU8gPP1KcWLGVK6eXGtarr+FDhmrF8hWaP2eu2rdpa9pz/JixmjxxkqZMmqy9u/fowrlzunr5im5ev6G7t+/o++++1/OnTqjlxbPnevH0ufTsuVFc19H0/k7+f/tIwcB8k/V3tQSKwjNcVvrs6VOtXrFS9f395ZUjmzJlSKekiRMZOGNGj6bYMaObBq1W1U/dunTV6a9OvckvvtfPQF8zZ8ioj0OEUKTPIiphgoQqWayE2rVpq2mTp2rZ4iUa2K+/+vXpozWrVunMqdN2ngf3H9Dhg4d05vQZXb5yWdeuXdW9e3f13aNH5swCjEHHez3p//GD/c8B08XYHz3+4V7ggy4aJf3mGa575OaNG+rds5eKeHsrW5ZMypk9m1ImT6pECeMrXJgwShD3C+XJ5aXq1fxUolgx9enZ63fOlT/83ff85rEjR1S1UmV99ml4hfwohGJGi66M6TOonn9djRw2XEsXLzZHUY9u3TV65Cjt2rVLp776Svv27bPnR44e1eWrV3Tz1i1dv3FDt+/e0aPvv9PzYIfQe14p53D/c8B8q1l89kJ69kIvfnuq54+f6MXjJ3r+G+OpXjx9phfPnytg6xZVrVxZ2bJkVrYsGZU/bx6lSJZYcWLFUNjQoZQuTSoVK1JYflWqyKdESZUvW05Xr1x9q9N4Xx/+7ttHGjd6rNKmTqMPPvhAn4QNp+RJk6pcmbLq1bOX5s6arSULF2vI4MHq3LmzJk+ZogMHD+rosWPavXePtu3cof2HDuri1cu6duuGLl29olt37+jXx7+a5nxf5xl8HP2vdclzCaikZ8/0+OFDfXvzpu5ePK+bBw/p0satOr54hXZPnaXtE6Zp46jx2jRynNYPHa0NQ0Zp89Ax2jFknPZ8OU4BQ8Zp2ahx6t25o4p451eGdKmVPWtm5c3tpbhxYilSxM8U+fPP7HWpEiVUsVx5FS5YSAXy5dfWTVv+q3vvq5Mn1bZVayVOkFChPv5Yn38WURnSpVedWrU19MshWrF8uebOm6d+/fupb//+WrJsmY6eOK69B/Zrw+ZN2rR1iw4cPqTzFy/o8rWrunbzhq7dvKmHj74J1qDvaWX/v9SY2D2knf3666/65ZdfRTrao0ff6uuv7+rug9u6ePSIdo2ZqrmtOmhcvUYaUq2G+pf0Ve983uqWM586Z82lLllyqUf2vOrjVVD98xTWwLxF9GWB4hpVwEdT8vqqZ5b8qpYzp8qW8FbevDmUI2tG5cqZTV45sitm9Kj67NNPhY1ZuFABlSpZwjRlvjx55ZUjpzlk3tP6/fXDvJA2bdioalWrKm/uPDby582niuUqqGf3Hpo3f742bNygaTOmq0OnTho+cqT2HzyoYyeOa0tAgNauX6ctAVt18PAhXbh4QVeuX9OZC+cNqN//+EOwBv3rK2Pf/L8NTDz2z5/r8a+P9cMPPxgAv3n4rbD7zp07p9OnTpvjAg1x8sRxnTh+RAeP7NPYnr1U+4s0qhMruRonzqAmyTKqRYp0apkijVqkTKuWqdKpTZr0NjpmzKpu2bzUPXsu9fDKqwG5vNU3Uz7VSJFOJXJnU8pUiZQ2TTJ55cyivHlyKmf27IoeJbI+CRvGAOpdML98ShRXWV9f5cmVW1kyZtLMadPfcdne4etBSMP33z7S0UOHtT0gQLt27LQY5+yZszRq5AgNHTpU06ZO1bbt27Vuw3r1HzhQHTp30tLly3Ty9CkD5MbNm7RqzWrToAePHtGFK5d19sJ5nTpzRpcuXbI1eYcz/Z/+6v85YBL0/u6bR7p356658W9dv6Grly7rwtlzunj+gi6eO68zX53SyWPHdfL4CRsnjh3TscNHtG/PHm3fFqDVc+ZruH9zdSxWQa0KlVLdHPlVJ1lq1Y2fWHUSJFathJ4RP6EaJU+lJqnTqVHqdGqZJpO6ZfBS3aTpVaVQAdX0q6BkSeIpTuxoShA/jtKnTaWsmTMpRrSo+uiDDxQ9ahTL/sHpU7RIEWXJlFkZ0qXT9ClT/3ubjtijpG8efK11a9ZoxdJllnAQsHmL9uzaJebq4vnzOn70mBYtXKgJEyZoy5YtOnzkiKbOmK6GjRtp8LChOnLiuI6ePKE1G9Zr8YplWrpqhTZu3aJDx4+a5jx99qyOHz+uK//FdMT/3iS/+y//s4H54oV5MB8++FpXL1+2zbJz+w5t3rjJpPzBfft19OAhi7nt3bVbe3buEo/7du+x57u27zBNsHP7dgVs3qqNGzZo8+bN4v2dm7dqy/oNWrl0qebOmqFpAwZqbOvWGlCvjjpWLKdmRYuqae48apglu2qlzqBqydOqWrI0qpk0jXwSJFGtyuXVokUj5fLKqvTpUilVymRKkSyJUqdMrtQpU5idmShBPAMmzh/oIkH+RPETaMH8+e++ckGPgGc0iCYM+q/Xnz9/9lzPnjzViaPHLJFgxbLlRmmZ1xPHjuvOrdt6/PMvwlF0/+49bdm82XJ/l69coZOnTmnLtgB169FdDZs21twF83XgyGFt2bFNy1atNIAuX7NKW3ds14mTJ421kIt7+PBh3bt37/VTCX79L2bgnwXM5y/05PFjPfr2W92+cdPiaUcPHzGQsXHcsW/PXh05eEjHjx7VqZNf2YZCO546cVKnv/rKslbQoOfPnNVXJ06atjx04KD2790nHg8dPCSqK3bv2aNdu3dpz9492rdrp/Zs3aJdmzcqYP1arV+xTCvnzdWS6dM1Z+IETR05UhMHDNCUbr01pms3jZ80RrMWzFLXbp3UqnkzNajnr7K+pVWoQD4bpOPlypnD7Mu6dWqrbu06Kl6kqDJlyKiJ48br9q1benDvvl64GTX/YpHe97+uXrmizh06qn7demrftp2GDh6iieMnaNHCRQZSBNem9Ru0fWuADhw4oAEDBqhM2TJatGiRLl2+pDNnz2rKjGmqU6+umrZorkVLl2jfoQPasHWzFi5douWrV2ndxg3asXOHvvrqK6tomTVrln1/5cqVWrdunb7++uvAGKhbmeM+Wl5ukIt2Y6VB3vr//ul/HZhUXRCwvnzpkk4cPyED4q5dpukO7N2vo4eOWLD73JmzBjg3+H3aAHlCRw4d1uGDhx3AHTigQwcO6PCBgxYYB4Roz907dmr7tm3aumWLArYFaPuOHdq2Y4dJ9s0BAdoUEKD1Gzdq3YZ1WrtunVatWatVa9dq+arVWr1+vVasWa1VG9Zq67Yt2h+wTfu3BWjrwR3avCdAu3fv1NHDh3Tk0EHt3omG3qYN69Zo4fx5mjZlssaPHa0J48Zp6qTJGjVipPr26q0vBw7SuNFjNHrESK1cvtzOa8umzdq6Zau2B2zTAY8AYS6+OnZcp06etCycS+cu6PKFC7p88aJuXLumWzduCCp/++Yt03ROCt0DPfrmW8sy+vHHHy0p/Zeff7G8199+/dVCPA8fPFD5smUVMcJnih4lqr6IHUdJEydWymTJzTubP29eFS9aTKVKllTbtm3l7++vrFmyqnjx4ho1cpQB8+btWzp09IgGDR2iUr6lVbdhfQ0ZMVwjx41Rv8GD1KV7Nys1a9mypVq0aKHChQsrS5YsKlasmOrUqaNp06YZzb1z545u3rwZOHj96NEjK0ejXhRQ/i/+/e3AJNYXmGfpmWEm/JvvHpn0PX36jE6cOGGSmQRqbBuARUoYGo5NCkXdtmWrNq5bb/YQ6W1I9G1bA7R75y4dPXzYbMzLFy7q8sVLunb5iq5duWqPVy5dto197OhRC5bv3rVbu3bt1tZtAdq0ZavWrl9vIFyxaqWWr1ihpUuWacGCRTbmzVugWbPmaNr0GZoxc4Zmzp6lmTOma9b0aZoxf5bmLpqnpUsXaR0OkA3rtWvHdp08fkwXzp3VtSuXdeXSRZ0/e0bnz57VhXOO3YYtt37tOgvoz5s9R9OnTNOUiZM0eeJEjR87TuPHjtXY0aM1cvgIjRw+XKNHjjQADxs8WMOGDLFwxpBBgzVi2HD7zKjhIywhAJCTGDCGMYrvD9eIocOCvB5h3+H4VJw0bthQiRMm0mfhIyjERx9ZXBO7OMKnnypSxIhKGD+BMmfMqGzZshmg8uXLp4wZMypv3rwaOGCgUVUAdev2bXMIoT0bNG6kfgMHaMz4cZo8eYpmz56tBQsWmKZctmyZlZxRD3rs2DGrCYXiMo4cOWLlZxRyo6EpT8N5d+HCBV27dk03btwQgP3222/NwUe9qwmdX37R48ePLQsJbfvv/lzNG/Tx333nv/X/vx2Y7oU9f/5CV65c1s7du3Tiq5M6ePiw1m/YoICtAdq/b5+BB4BCUzdv2KiVy1do+ZKlNlYuW25OivWr1yhgy1YDKzYSWhNNihY9e/qMadSznnSyr06cMDvKgH7woDl+cG44Nuhu7fHYomab7tqt3Tt2aOe27Qb2LRs3G6VbvXK1Vi5fqeVLl2nF0qVasmiR5s2ZY2P2jBmaOXO6Zs2aoTmzZmjurJmaO9sZC+bN1eKF8zVvziwtnD9XK5YtE7Yc6W5rV6/RmpWrtGrFCq1asdIG18pwPrfMue6lSwO/x+8vWbTYwiyLFizUogULtHjBQi1ZuEhLFy4O/N/8ufM0b85csx2nTp6sMaNHa8zIkaapBw0YqAH9+tvo37efgbx/n75q1qSJlYGhQTOlz6CIESIobOjQivBpeMX74gvFihlTuXLl0uDBgzV8+HCNGjVKU6ZMEUDbFhCgbdu2aeee3dp74ID27NurfQf26/SZ07bWFGgDKAbPr127blry4sWLOn/+vE6fPm1Ul8czZ868HKfP2PvQYPYETiQeGSfxsJ88af933+Nz1MICZrzBAJlCdYrWYWR/pnX/7H13z/43H98LMH/++WfdunlL33zzjUm1bx4+NBvi3v37unHzhgJ2bFe3Xj1VtVpVtWrTWmPHjrM0ts7tO6pTm/bq2rGTevforuFDh2rB3HmOt3DZci1b4ngMoXe48wETtBQA4QBig7PhSdRmw7JZF81foAXz5mvu7DkWlqCSYtaMmZoxdZolZ0+ZNMlo5bQpU+29GdOma/aMmZbM7W72ZUsAxXIDC+BZjV20eo02rFtnpVEbTHOv1trVAG2lZ7jPAd0yA+SSRQsMoPPnzhVj4fz5HkAt1NJFiy1HdeniJXb+XIM7eG/50qUmEAClIxgccHNeDHt/yVKtXArgV2v1ylUGVK5/4fwFHnBOcZLSPRp50oSJVuZlmnncOKPTo0aMsJS8oV8OVqcOHZQieXJL2SMrCG36RZw4KlOmjBYuXKj169dr7dq1WrFihZYvXy7sRZ4vWrzItCaMY9mKFVq8ZIlpycWLF9v35s+fb5oT7elqUB55f968efaZJUuWaOmSpeJxDXO9YYON7Tu2G9PZv3+/aVM0LkAFjAy0K8MFMRp3z5499h0cTwz+D1jZn4TViHH/qz8D7H+ZQb83YOIgqFGzpjp16qgB/ftr3LhxGjVmtBrWb6CMqdMpYey4KlWomBrW8lex/AWVKnFieWXMpFIFC6uKb1lVKVtWlcuVU4M6dTSgb1+x+bdtCTDNhTahFAlwTZvsbDanCsKphABkNqZO0bQpzpg0foJGjxpt9A5aOGzIUA0aMED9+/XVgL79LGmbxO3+/TzP+w/Q4EFfasjgIUYBoYaURY0dM1YTxo8XGggQcx6AnvpFgLR08SItW7LYwLlh3VptXL9OWzdv1OaN67VxvfOa96DhG9au84y1Rmd5b/2atQastatWyx0u0BA87nt8jjmBBjOsrnLNGhMYpoVXrZYD8oUGTIQT2h2hE3TMgpZPm27zNW7MWLvWfn36qlP7DuYIqlOzlmJEi2bUlrS9hAkTWjeGNWvWGBAB46qVq8RrBkDlcdGihda9AcfO2rXrtHLFSgFMxtKlSwMHmpYBoO1Yq1Zp9eo1BnqAz/uLlyzW6tWrzUmEFz0gIEA7duwwh93evXuN/p45e0aXL182wNGl4foNRxtfvXr1Fa0MKMnzdb3DOP327dtvQEZrf/PttxYLd4EKKAOdUP9F+/a9AJOLYgGSp0ihSFGjmH2SIkFiVfQpo9yJUyh7pBjyy5xTTfMXV18/f01r30Vf1m+kEe3aa8aQIVo1Z5bWr1iuaRMnaMTgwVbcS43g4oULNWnCBAOIK9lJuMaJMnb0GE2eMNEBy8xZRu/QQmxOKN68uXNt82G/AcwhX35pYMT50rtnT6tB7N61m7p16aKunbuoS6fO6tyxkz3v2a27+vToqT69eolNC4Cx64YNHWbHArQUHU8YO04Txo7VhHFjNG3yZKO0c2bNNMcPTh0054plS7Ri+TJz8rjUFcCtXwdwN5gG5pEsHGfw/OXYsnGTtmzapIAtW4xmQ+UZWzdv8YzNxh74jgPolVq7cpWxDl6vWr5Cq5avtEfOCbMAbQwrIJlg6ODB6tq5s1o1b6EG9eqrZfPm8qvip0IFCqqsbxkN6D9Ae/fssQ4He/fuE8DYu2ev49XGs71rl9HZHdt3GEiXLV1mdv+e3bu1fft2AxQJ8Tt37hSf4ZHBe2i2PXv2aicsaOcO5/XuvcIPABDdz/Ib/OaB/QfMo378+AldOH/Bco5JJrlrVPmmqD8FrDgSebxy+YquXL4sqPPFCxfNZgWM0GauY9iwYbZPAP7ZM2eN7VEt9PLPqZ6xzg1vEZJ6+f2//uy9ARMjvHefPoqbKIGypMugKnkKq1vJGmqaNqt6eWXXlJIlNTmft6Z7FdLCAr7aWLOZrs2Yr6sbNmnT/Lnq3a2LWrdopuGDv9TgQQM1bMhgq2Pk0RlosqGiZpCKe2gnGxlai0NlxzaH7rJpTROtXRtov0Ejp06eIhwlg/oPUP++fUUVRcf27U1LUP7UplUrtWrRUq1btrI8Ut4jlMAgtACAu3frph6e0at7D6sU6du7t7DVsOGGoHG/xDEzzBw6CBWXNvIcbT5uDCCeIhw/aF7HZp1rVBr7ECpv1HcO9HeevUb7GVVfuMiEDpra0YiOPWlUfdo0o+jUUuIB5nptTJpsFB4GMXHCBEHleY5XGOGCoEPwILC4Bt6fM3O22bloa4sBb91qQoEwyo5t222ucbwhLJhvnu/YtsM8ylSpQLU3b9pkgsfV7qtXrbJwzNw5c0yIYidzTQvnLzS7GCHhzMdcc045rGS+AYd5gJ67x0bgwB4QWJzPXrQg9HXPPlGqdvTQIR09csTCaMRmCauRcEK1jFtjSryW62M9YVOTJ02ytThy6JAlrzzx0F0DKo4lA6anvcp/QJO+V2CuW79epcuWsWD6hEHDNOfLUfL3Lqqx7dtoSvv2Gly9ulZ176F9Y8frq6VLdHbHFs2eNErVq5WXn18F9ezRVSOGDdG0KZM0auRwDRrQX4MHDdDQwV9q+NAhRiepfiBjBe3DhkR7AhKoGGBq3aKlWjZrbpK/ZfMWBizqDKGpVOiPHjHKHvkOoGvetJmaNm6iJo0aqVH9+lYGVbeOvxiURPHoX7uO6tapo3r+vOevuv7+FgNsVL+BGjdsZN9H0/DbbVq2Vod27dWnV2/LOUUrd+rQUS2aNlPjBg3tmGVK+6pkseIqW9rXqk5o8dGxfQf1691HOGbQ7pwrxcx4VvHA4p0d5Tl36DYg4rMIht49egotT3cCG126Wu1n9y5dPYKku33GGEDfvhau4bjGPEaNtk1JNhLgcEFgtuq8+Y7dumCBFs6bb8MB1AItmjffPvtSiMzVvNkOqKDIsBkExOQJEyxGioDi9zAnvkSImQAbbuuBN5lrRLBhZiA4hw8ZppHD8EyPMK80AoOw08Tx4y1zCrOG9UeQUU9KTezaVWuM4mMyQPWh+Ix1q9eaQxHPPoKcEBqOQxyG/CYJ/R3btdeAfv3sWOvXrNOBfft19dIVPf7lV0ftud0a3Me/rgzf6JvvBZgY09AD7I0mTZsqdbq08qtZQ8V9fJQ8RUp5ZfVSlrSZlT5lWhUrXESly5ZSlZqVVKVGRfnVqGgZNEMHD9KwIWhLNFofDejXVwP7s4n6a8yokUZp0QbEANF0BMcpVypZvITVOZKATRuNAjzmyavcubzklSOHvVesSFEruapYvoIaNmig9m3bGhAAMvStVo2aql2zlnkna1avLuwsXlNtUbN6DWuwVc2vWuD/a1WvYYAl5ACoAXfzpk3Nw9mscRMDK5oXjyfCoX+ffqad2FRsTn6zXJkylj9LGRjXguMLCc4mhVL36tHTM3qY4AF4PTwgZxO1atFKzZs0Fb/XpFFj+02Ab6NhI3uPc+L3ERguAwC40HOzpz0antAK58UItK1HjTZ2YnR9HGGccQJwDDQtg7AMAsNCM8OGadiXQwxwOJJYJ7zACJu+vfuYsw9hyGsTih5GgkDC6cQ1I9A6tG1n19m9a1cTbMwD59yudRs1bdTYOi2414j/AuGIIOZ7fA7tD6uaPdMBLaVss6bPNBaCxkWg4903trV9hzkTYVLMKU3KXCFMVweucUfANt25eeslmP6vABOPLAY2NsPWrVu1eu0azZ0/X5OnTjEpOLh3fw3s0lM9OnRVsxYtVa9FMzVt1kztWrVWh7ZtNHhgf02dMME2BAXHPXt0U++ePdS3d08DJ8BEc3bp1FGAhsB34ULeBj5KlZIkTKToUaMpXNiwChMqlI3QIT9W6I9DKWyYMIr4WQTFjhlL8ePGV5pUqa21BgH0KpUqm5Zs0rCROajQjg3qN/CAzAEa2pCMHQektWzR6tXxt8+jARvUrWf/q12jpuhQUKlCBeurU6FsOVWtXEWVK1SUX5WqVsFRrUpVK1Qu7VNKlSpUFOBGAABKwI0GxEaGoqLZoNU0zALgrZq3VAuA37iJbU60e4N69Uz7mgb3aHjT9B7t3rB+ffs8mhz7sXVL53gwCzYwmhwaBz1Hs9qw97qrV/eeRtMBESDu37uvaTEoO0wADQ1gWC8e8QcgNLBVu3TsZAP6bwymZSu7BkwFNBPvdWrf0dqZcE6cW7MmTdWiWXN7r0O7dgYygIbAY26ZL+zdksWLq2jhIjIhnCevcuXIKa/sOZTby8tYWlHvwipd0kdVKlYyAHN+gGvGtGnC6YWGRcO73nse8bYTC9+6abPNO4KdfUIKZYmixey6cDQSU//phx9fAvRvfvZOGpMYEQFiPGh41Kg22Lt/n0j5un39um5fuqx7Fy7rxukzunDqK525cEaHTh/Xkf0HtW3NBi2et1BTJk+2SoauXbsa5evaGW3RXf379la/Pr3Vrk0r1ahW1dLdvAsUVLo0aS1TJXy4T6yPzUcffKgPP/hAH4cMqXBhwurzCJ8pauTIivx5JIvFhQkVWiE+/NC8jB+HCKkokSIpdcpUtsC+pUrZIqJxAAFUBo0AjRw8cJDZji5NbtuydSBY0EIACyqaM1t2JUuS1PrpRPk8kiJH/FwJ48W3Vh7p06ZT5oyZlCVTJusWkCNbduXImk38bp1aaOXa8q9V24BbuWIlFSpQyIQOmr1CufIC4NRx8sjGLFOqtH2X7zOc16UF2Bm+pUrbe1BlvoNgqFS+ggkMNmuVSpWsbSVCiXKvGtUcFoCmQOjVqM5jDRNAABuKjeCy0aixAd2EQ+MmxgbQyAAKIYX2btqkiZo2bmyfh03wfTQax3IGzxuoYT2Gc3zHHGhoGr9VixZq07KVGtVvKAQZ1wcjAiyse/wv4ipKpMjWheHTsOEU+mNHANMp4tNwn+jziJ8rTuw4SpMylTEl5sG/dm2hfUm8gP7ikWbgp+A1XnbsV9gKiSzY3GVKl1GXTjgCO6tgvvzGOBBkVPkdKgQAACAASURBVAWR5kke8e/+CK+8Pn73oTd/452ASfYFrvB+/fqpf//+Gj16tHln169bZ+llWwO22iPVCaSbbdy4UYsWLbaMkMmTJmvw4CHq3qOHurmSu1tXdWzf1rQjwKxf118li6MhCyp92jSKGimyQoUIaZUbH3/k9K9JmiixsmbKrDxeuVQoX36jythvxYoUUaH8BZU3Vx6lSp5ScWLGsn43YUKHVtjQYUzLsoC5c3rZ4qMd58ycZVq+hl81025sZACIZnTpExuOzYUkhw4CNo6Hdgb4CAradpQtVdqAAeCqV/UTx2TTV65USaVLlbK8WSQyNBtJX8S7sG2CvLlyW81m9ixZlT1rNgM+j1wjIM/kGfTwITOH9zJnyGCPWTNnUbYsWZUjWzblzJ7DjuOV00u5cngZU6ARF9fLnKB1CuRzBgzCfc5GhJGgmTg3GEqJYsXNFPD1KWUConyZsiY4KpUvL66PliV+lasYmGAOXCug53qZPwN9tWpmEjgMws8YRs1q1VWndh0Db6MGDcSAdfCbRQp527UnSpDABCzzSmYS6x8xfASZEPw8kglawjsIXARzCI+gZk2+iB1bGdOnV2kfH2MX/fr00/SpU81GdRxzY432ut59cygSH1+12pyEdBVMlzqN7S1YE9fdt1cv6/JAudy3Dx9aQUAg3Fya6z4G/uPtn7wTMEmRmjFjhmrXrq1y5cqpZs2a1uG7Y8eO6o5N1KOHevbsqd69e6tf336WDE3csE+fPkJDtm3bTq1bt1br1nhEW6hVi2bq3LGDunXprJrVq6lYEW/lzZXLmluFChnCNCMUNUbUaLYR2TDYaJUrVLJHl+oUL1rUaA9ahDpItAcUh82ItoT6hgr5scKGCq14cb4QGxr7FPqEPcjzrJkzWyZM6pQplcE0X0alS5NG9GhFm6GNACdpbWhszouBhkZrs4jQUexgtBubHMmfO1cuK/9iwdOlSm20KVWKFPZoYMuQ0X4vQ5p0dl7QNQOUVy7lDjLohFC4UCF5FywkmATdEQA3vwPgEU6lSpQUYPIt5WODDYpWLVu6jJ0X58go5xvkddlyNpdoaAbnzxyjeU3rVkTrBh0VX3mNMHM/5zyvbP+HjjpMoJzDBsqVN4rqV7myY99XryGfEiWswwOCKH7cuPr0k09sbkN+9JGtedrUqU2wIDQopcNf4eb0cr2EeBBKCeLH94D5A/t+9GjRDeSsGzYtNigeayjqhHHjLQ0ScFp/3bnzRIgKbzNONp+SJZUsSRJbA36LvUUhOeE6vOiH9h+0POUnjz1JC3hsXWC6GvTtcflurUW498X48eNVuXJlFS1a1MBZqVIlVYcS1aypGkhMHCm1a6uOfx1LXuZ9Rq1atQIf/f3rqFEDbK2G6tShnVFXqjToOhczWlSF/OhDffThB4r8+edGEQEckhkHCrYAGxdJz8TxP3rrQIFwAlEDyf/RSkjr6n7VTBskSZjQMlsAZ9TIUZQxXXrbFHhq0ZAUPKN1MmXIYFKX/2N7JE2cxH6DBso5c+RUpowZhU2LRA8ZIoQ14EJz0lcHmoqGoukV9jB0jPcRDqmTp1DK5CmUIllyGwgAgIlAyJY5i2lLuh2gQREoBfMXkHfBgqbN0CZcHyDjehE6ABDqBpBcClwFG7dyFfP80nMIu9fAYhqusgmXl6/5nMcerupnz22+qvqZxmfe0HBoQ54zWAMoMcdmQJGh3ghDzoXB+ZEMD+gcR11xe0SI8j5rCGAK5s9vNiMshowjkhs+/iikYsWIaWvoU7yEHYtjMPdU6jAfCKhCBQrY/CCUKpZz7Hvmg/VyjwWjSRQ/oX2uvn9d04g4uwb2H2BA69Ozp9nTeIwxZ8isopoJJxGeZAQLioDf4zpxbAFmvMF4eqn3ffj1169C8HWAvkU20TtpTIBJhg9gpGqgbNmyqlChgo2qVasaQKtVqyY/Pz9VqVJFFStWVPny5W3wuYoVKno+W0WNGtZX08aNVLFCWVH1T/+c6FEjK/THIc1GjBcnjmkDNgSSF/rFouNx7Na5s3nt0FAtmjVz7J5mzc3TN36Mk/4HnUQTImX9PBsIevh5xIimPaNEjmzAAdzNmzWzzZUze06jhgCLPFJoY8YMGUxzQdOglTgeEiVIaJUaaEqaK0Oj6KNTztfXNBLfBZAAE63LSOvRloA0VYqUAphpUqUSWoHPAWSoKueIBgGk0HUEUf48eU0QFQKsjD/SmJ6N72hMbFNnMGcGGl9fAwZaFFvO0Y4vNSeAQZOiLRmAHQCRU/uKpsX29YDQt5SvCUW0GZsY7VK0cGETJoAIjYaAKegBEpoPrc77eNBhLwg5zJTPwoe3uQBsnDPCCSGHtkZ44mQiMaRzx462ztiEjRs0sHOGPSCcERp8N0mixLYm9NaNFjmy7QEYD04wUjbNGz1ylL2GvrKPKIVDmxKTxfFDCRzJKjixuBaENiyCcyFZ48C+fdq/d6/I0X54/4Ge0X8XIBIDDQrQV6H7p6/eGZjYlYANjenj42PPASDA9KvmpypVq5hG5T0XtEEf+W7lSpVVv25dc0wAOO79QReAkB9+aCNB/Hi2eXAIFCpYyKQlHcSHDRlmiepDBg4y0LCp06dNa5s5ccKE5sSgUh9X/8RxEyxGhuYEoNhF2D949Sh9ChsqjCJ88qlpRzZf7Zo1bROxAGjdLBkymSajNQigwWHChkqdKpVRVLQd3QkAmgtU6CqhGDYVYEsfZABUJDoaAmAy0KA2PK+huLwGsPwmAoLf4RxsZMps12q2JVrW7EtH0wNklwIDaHdAh/PkymWaGG3MXAB0NAGgAexcF4MNbqOQt9l8aGradNpj0Pfc557/QbH5DLYqx+T6nZFX+fLkCfxt7Fre5zMJ4yVQiA8/0kcffmgOHoQglJz1QfDgnFu2ZIklPiCMcSwR2qhVvab8Kle1eSbRga73ZHGxtvx+hXLlTMNlzpBJOAzRxDTA5n94sYmfWsx46DBLsnDjySQduB5d0iGPHTlqnR3o8ECWFSEhvOqwCHKQd+/caaEXCjBo1UKp3s8//vQSeIDzP6Ux79+/r5EjR5qmLFKkiNXrkfAM8AyYHk2JtkSr/hk4K0O3KldR4QKFrC9OnFixbIEw9uPG+cJsNKgSi024gtgZnlSKjnGBkycLHYWWUhURMXx4WwAkHxkfiRImtA2ONxXpiMOBDQk9gd6xsSN+Gt4cCxwHz6lLmdjIaCwDQgYcLQAwvdl21atWsxpGvk9IJlzYMAr/yaf6NBwew1AKFyacypTyNacIntl0qQFnOhMegJTXCJM0KR2AAtKgQE2RNJl5fOl8AOWlXhIbl8dUyVO8HClSCBAjFAC7q53xCmMf/9mAnrtMAOFjAM/i0OgcWQG4MwAHQHfBDuCDDtf2NY2eK7cxCp5jSiAE7HsIihz0RHp5HHogATrOGc8qJsBnESLYfMNcYAswJKgkYRWqeygDRFhw7hnSprVroysELATwADLASEyUkA0UmLVkrVk3NDHgDB8+vF0v+4rwD154NCJF7MMGDzEbEo2JQ5CqHzQme+nShUvmmSU5gffYe3wPzcq5QWuddMyVVitMiVrg338KmGTrUwYEhaUQFnCWKlXKgIndWaWyA0hACVhxEPFZBs+D0lpsBhYyeZIkJjmZPJw0hCRYHO8CBcwbCvVgoqEnSED+R+VJ8qTJbMIde88x+plUJhcpjDSOHy+eOSagKUhLNhSUBxsN7QaoATfePPd/aJMc2bNbyINNHNRehOLxf4BCf1YaKVvoJkRIhfk4lAE9WeIk5tyAtgEQhAmD42RMl07p06Vz6K3HGeQ6hNCSqVKmVIpkDjgpZGZwPJwRzkjqADdpUvt95iB5IIAdbfsKgF8Bc0qlBsxGnx2aHQhktHO6DGZfY2MjjGy4mtpCQJkdJmGABtQusLMaoAgjQU95H+2HYAL8PEezYwKgtXiOEAsVMqQJV7zKaG+Eo3+tOlaeBshwbOFEO3n8uFFp9gfhEry0PAfIdLMwW5W7rZUoYZqS5Ab2CF56TCCEQOhQoew7hF5gBsRWyYQiU4k8ZsIpJE/Q1YE9RM422Wa7d+wycFJmSGcMgErlE59Ha1KmiNbevHGjPQegUNz7996+rco7UVnCJdiYvqV9VQj6YsD0MRCiHYNqSMDo6+sbONCsDN4vXbq00RnAgERjc+P6xr6oVaOGSVycGoQnmEg2IJOKswVaQvUJjhYWiAXmEa27deMms414DVDQZCQkQJGQrFAibDaEAjZRvC/i2u8CeDYpkhmvJxqDTQWYeB+6jHYiVAIlRrPxGm2LAMDja17aUKHN5vQp6WO2EcfJnpUwSFbboC5AkeQMjsswDecBrTmLAqltSkdLBn39R89dSuyC9I8e3c8AVs8xXI39Z4/YxWh41w52bGbOmTnxaGauI01amxvmxzQ43/N8FwEIaNGUOOwIc1gYJOTHpr2xOdHcJHzgmMFTTiwSYfn5Z5/Zhic7Ce83NiN7hfXls1BOytXChAljvgHsYuxkHDU4sgAv4KYIHAGOt5c1x5lEZhEaFk8tYFuzcrV5bl1PLYn/5OYe2n/AUvkowL90/oKl9pGgQMoitJjv810oLZqW75HLTceJ11umBGrSP3jyTsCkto2i2VI+PvIuVEjFihZR6VLYmTiBcPKUUznPKFO2rAERcAJEd/Aa25QucmxIpCAT5thnjp1AmIHMjfJlytgGiBY1qmlBAAAQ2rVpY4nZLBbvsVAlipfQ9q3bLCiNxxRgotH4H7FPAso3rl6zRYd24cDAG8riIxTwBuJsQNNZ20nrcPcSQAAxSeLEpnHz58lni4096Cx4CKNlnAvnxO/hzYRWOeDM5tirpkEy2oY0bWyayvkNF6wOYJ2N7wLAHoPYq0FtV6PIRpPT2Bwyj/9uAH4XcO5jOpxQr33XfscVHh5hEvQ83ecA1onDZjVq7gI9dQon9AQNRsByfNaEjC3CTjAhTAySLwb272/3gwFMrIcLQDKl0ErMPwkHsWLEMIFIaxbsQ9aXPcEjMVB+B4cROcCkWMLAsHNpq4JAYH0wUwAuSQ8IBDQolJaQCoyLwgO0J2l+2LkAjcR47kNz/MhRo7BU+5CsQBUU6ZVoX0DtHGeyVfXQVeNN/94JmI+fPNGiJUtUqWJF+RCqKF7c7nDl61tSvr4+Klu+jMqULyvfCmVUqpyvSpfxVanSpS02BBjdUaJESZOgJAGwAFGjRHEC2WXLmfQcPGiQ3RION3biRIls0rFHyPZhEdjsVCqwCEhoaBPGO2076GcT+fPI5iUFoLFjxrQ41vmz58xmIUmaAHz+vPmMLgFIAPVJmLDmsHHspNxGzzJ67EsECJsPTQOYiWfyHA0I5YNukv1DaCV+3Hi2CXB04M1EU2B3AXa0NY/uaxgDjq8c2Wkgnd2kPtrDQihZSB7IomxZsypb1ix2jdBCZwRxCLnvufTz3zxCVV3w84jtRlDeGQ5DwKnlCoV0nmvnPYbZep7/My+8Ruu7NisAcoGJ4IJ14OwBgG4og2QBHFGwE7zHmCYIYgQy4EFYR/gkvCKEDy/ATcUKPgYcc9mzZDN7l1YzsB5oKuvM/mAv8TuU1XHXMuKXaGTsTY4Du+KzgJvPITwBMeBF0+JshLERXiGphEwn/BZ4YikdJLRCuxeASI5u106dLR7fuJGb5ulvKZ2cK6mMWzdv1qtlZX8O03cC5pOnTzRv/jyVKFxEWVKmkVfa9Cqcy0tlihVWxdIlVcm3lCqW8VXFcmVUrlwZlUY7li6l4iVKmKOI5k6EWUqXKm3AgMYCCjY9sSIWCqpIBQA5q/QBwshmQcjwQLM6ntQMVlKF+7tw/gIqX7q0FQeTLG6bOUsW+w4AJj6FlMP7+0Ws2GZbkC5GYBrXvuOICKvQIUOa4wlbB7Bg+xC+CLQzPdSNzQblxl7C7sU9z3fQQnwnZ44cBlQ8tRy/RJGiZu8AUOwmZ3i8nd7eRp/xjGIrIRTy5gbAvx/YtggTBp+zwXNPMv8ffYf38gUZ9trzXUDgHCePaRQ2qiM4nMQG19mDIwenEPOFUwzBhJMGILogx6mFFkJoILAAJ/OUJFEio/GYCGhftGXIECHtOY49hBrpc5R8cZcxAvjY4LQ7oc0JwgFvOzmwgAJPecokyVSlQiXNnT3bwjDMPQ5DwlaAnCoRKC7eeHJ10YqAjr2F1gS8JDLAFIirAkrAa6OkjxMjLkU4yVduphMJFACW/eUOwEtIrpxvWWNRxGnR9gwYAEn61MbSOvRN/v4yMLnL09HTJzVr1kz1atZG3nFSKFuoyEod9jOljxRdeeMlVt64SeSdLK1KZsul8kWKm4fSx7e0ihQratTV29vbnEWUUaEt8GhCJdmY2JQAqWePHuYKx6ZEis+cNsNajDARpOihlXAWYCOQjVG8iLf8a1TT1AnjVaxwYdNQOFGgQNQTsuiAC6oDMCnToryKDedqsOhRo5qU5hGNlStHDtuIttle0UCOtkFTEtNCG+CgYZGhX9iZ5HCG//RT21zEvyx2V9LHNga2LnFEslYs9udZSBwVDIBs4YkgIQoEAJuYjVbcPlfU4nLEZzm2O3j97wbH5zNmY3uyWog9spnc7CHoN44UnGRu4gaU04lTFrPfc4UL6wBoAShARQMDSMBpiRRJkylfrty2vnFjxzFtCDgK5Ctg32MzDx440OxT7D4SzOmCSFiCdciTK4+FomAfw74crBLeReSdL78mjh6rNi1aGsBJNmDfUNlD2hxOHDzmEcN/ZmAj6Z755jrjxonjUN8QIczWRDBxXcyxMzdOJhXnRawXm5V1RqsSjuHWi4RsoMi8Zk1wtqFY+L59pm49uzkwSf7k5D75zb1P3L+G518CJu0XLl2+rOFjRqsrhaa9+6udn7/8CxSXX678Kp/VS2UyZlexlOlVNlVmVU7vpcp5C6tSmXIqWbqUChctIm/vwgKY9erVU7euXU3DhAgRwlKxoHxMDloFhw+Sj82PBw4HCzFE6gWpR/Qu5G2AQsNS9+idP59KFMqvNs2aqHAB7htS0hKrKffhFnh4T0OFCGHAI7UPzyp5k2TAAE42doJ48ez/3LIOMJIW6HgYHQrJprPsnCzQymy2aQALAXi0Av/DU2sOoBAhLbjNc6gfAITKsbnRtOYVLuFI5peS2gFB4GtXgnvAwXc4DoD6w+EBFuB6fZgUd7/nEQSvf8Z9zYYElMxhqZJk8Pi8ok3sNe/ZcM6Z8wE4Xtmz2/UCSsCJww6Nh4ZH27o0Fudd8WJFTagRf6TcipAQgpMcWEwS7EcqXXAaAfY8Xrk1qN9ANa3fSJVKldHcaTPV0L+eMRW0NJSSfFeS8jFJOBbOQDQydih7BROCc+KeofyfRBPWGkFYMF8BT1zXie0iUIsVdhId2JsAkwQTQncWy6xew7z9vj4+9n0cTOxRKCxJ/ygFEv0p7rZufm8QNvlLwOTgK1auVM0aNVSjRnXVrFNLNerWVu36ddS0QX21atRALerXV/MG9dWjaUuN69xLA9t3Vp1qNeRTykdFihRWgfz55VOyhNq3a2vcnaoMJgiJU93PzzRKi6bNDUxsQjxpLCbAxMGC4U9c8suBA03rYdvEihZNhXN7qUKJwkoQM6rdm5JOBWNGjbHJhJIiTZGUUGbCIzh+KMKl3AjqiUBAupsrPuTHJjBI+jbbD+rmSS7nOGh5FhhaCajZoADcqksyZrRQBiwAe4dHtD7Bd2ijaZlC3vb7UDsktTsA3qub3t38Lx//KjARBggfV1MasP8EoAZMUuCCnk8QIfE7wUHqXUkfEzqu9kR7MJ8IRDQp1w5AmX/sQSh/YW+nUz3Mhd9kjdkLCDO8ppwrBdTDBw9Vm1btVK5MZeXMmkcVfMqpYgkfFciZU7myZhONtfHOohVJl4wWhXTOEDagw4SYSK7HWch6cR4wNOgsnQHxrgNCS4rwJF3kJ/HCM1gzQmsI4KpVqhj4oK/V/PwsUR8AUuwAC0II42tA8LBXADTdFd707y8Bk4PTmxXbrHXL5mpYv57q16ujuv61VatGNdWs6afq1aqouh/Gc3XVrV1btWvWUFXL/imn0j4lVbxoYVWqUF5tW7dS1cqVzDPHYkAziTd5FyikMSNGWSU+EhyJFi50mMCSH/JmCbzz2Q5t29vF58iYQc39q6t/5zaqVs5XhfLnU7u27VW+XEWzcyqUK2s0imA8i0E/VaQzNYe0HAF0AI0FI62OcAwS3zt/QXMOmN3mhbPGGVAfNIBrnxGbQ6hgZ8aIFt3oHJ8FqEhnHEs8Fi9W3LQGlJ3fZOTy1BRi2+HEgmrhWXbB+vrjH2rKIJrQ1XpBH9GWgNKhng5NA6jusYJ+lueAJBCcpjVfCoY/FhyO1uRc2eBoTrQQwhatyQaF/SBEzbYLF06ZM2WyOWTO6GqQPWt2W2Mce7GiR7esJwSfhbmKldDIEeOU26uQYkaNq2b+DdWtRTPlTJda8WPFsC4TZAhxe0FAiFDApGBfMdCaCEG0JgI5e5YsVh7I/1hvYsYuMFkH1tbWN19+06B8F6EJy0JrYmtyb1RS/6yqplp1UR3DvkS4cPdu/CasP1T44vlzb4rLv57EfvLkVypbtoxaNm+qRg3qq3bN6qpXp5ZVhVA/WbM6g/IfPwNoNb+qquFHEnkVVatK0jNVBTXUvGkTu40ANJXFIkTB4rGBcPRAbZgQJs51+ODiThg/vjkdACbFwHyuXfOm6t2hpbq3bKReHVprQJ/eat++g9q2aW8OJgqMsQfIk8QewGagnpDgMfwfBwc0C8cEFAiPIFLPpZ3QHKPYBQuZFEUrIF0ZOBN4zYLiYChTurTVaEKf2Ki447FtoLhsarQt8Uy3zAsnFZ9lIzsCIpcBvlD+/EbpsZ0Y5jQqVMjO39V8gCvocG1EF2gAz/m/A0quAepdpHBhm+f3CUxoL/ZV3jx5LITGdaIVcapxXqQoulQVBw30lHnHA0rVBk4yPKXU0MKisNmZ10gRP1e8L+KpYoWqqlnDX62atdScSeM0e+wQdWpeT5XLljb7j99g/RC+OKdgWlEiR1GsmLHMxMDzSlE684jJgUcYYBJOA8wIxYJ589u6BHWwIWTYh+wFtB+2JgNwmtakAKBKVTsua0yNLr/NOTAf1Jl+8/XDvx+YNCuiAj5XzuwGMrQgYKtUgWTnMqpYvuzvBv9DS1apVMEqSPxr11TjhvWVL09uA8FHH35kG57FBQTW5Clgm1Wd0/4B7yxNo7AhqMTv17uvpk6apM4dOlmhbttmTTWkRycN695WHZvWV+umTVW7tr8mTpxsbSiJQ9E4ma5x2C2kT+0ICDBXOp47Ngj2I9kwBKoRFEhqHCAkUUCpXG3jPOJN9WxuDx1k8QAp9geCAPCxuQiJ0G0AgPoUL+5o+GzZDMgcw7RMgYIq4KHFODvwAgNY7Fu8jc4mzql8uZ36SQQCG4nfCzoCgecBYOBrj2Dhtb3n8QoDcIYL0KDADqo1/z3FdryZCD3YBLSd+eC88dySKI9mwQwBDGiT3Llym8ccm430NrQP2ohkctLlGtStb50MCHHQzYHKpFatWmrE0P5avXCKJg/tos7Na6lh7er2XdjT4IFfWjiDHOkZU6dbVwjuakaXArr2UzGCoMJexYGIAMbWJIkeByBaklin46V+6f1mrmExXAdC3ZxBFSo6lJb000qVhQca+uqEyxLbepP2ScL923RA+MtUFuhzOwJunpMqRTIVKpDf7mxFYXPJ4jg1itl9Ibk3pDtKlaTUp7h8S0EHyqhKpYqqWd1PWbNkcqjlhx8ZTWRhyRqhwTJpVsQoyagYNnioUVt6vNAci0UmrkQxMFKqZpVKauFfXdNHDlLX1s1U3NtbsWN/oTq1/Q10TDgLgiREqiLFkYS45ekeB4jQWExuIDATOYFvEhDYvC4wnc1c2LzLRvuKueVMJUwzFPb2trgY/WyQliTGI6VxDKDdcd2jrbkWJ7DttCyhWBitjq3qW5o6zmKmKaHJFrLwhCvwFFtrDTeH1U1apxjay8uoGnSNgVZ2tbqBBccaCeoA1yNYuB4ET6Dt6Xpmg9DZPwMmNNQZDtXlWMwxv8Fact0UsVMShtCluwTAxCPLmmDvQQnJdSUBnD47G+kxu3SZpbuRK0vsEEVQvFgRZc6STi2a1VH3dnU1qKu/BvVsotLFipgQJUuoaeOmBlJak9ArCQcMsWb+B9UlcQCvPwkO2P0wMeLhUF3mi1CaC0rXXOE8ASYaE2BalY2H0sICMOuwPc0LjbMrSVITtvhA2Ke0CX365M08smDrnYDJAWii9fln4ZUyOcZ9OgMqZVt0HXBGAbursndB55E7LPN+Ee+CBt4ypUtZyVPIDz5SiA8+MA3hU8LHsoBmTp9ujZ6YEJKbsTvM9rOyoAiKFiWKbU42MnHOTu3bq061KmpY00/N69dT1w4dLZOjbp26luFB7i2aiElDG7I5yEmdMW2GpW0RIIdOMrnQLP6P5GNDEU9lQaCjaFA2GCVVxLfcRYLiIEV5DR0vXsQpWObcaFNBBsmc2bOtrSJJ0LRdpBqCdpRU1nNfEZLsBw0cZN3v8FLSeAxgs/BoXDQL2oN4m0+x4ipSqLAJFzYUmpUEBDdvFe1vObnpM5jG4n2XOiL4yM6xChPipSSfW7eDnA6wPQkQbFI2JUAzuwuniNleLzcv6+OA3AkzeBf0DtTkvA9Q0cYINzY6vgLmFucbVJfjoyFp64Gg4LyhotBBTIm4sWMrQrhPzOONEy57tsxqWL+GWjeprZGDuqlvt/aqUbmKeaBxwBBPptAatgH4oMaOIIhgAhkHEU4cHFLQZTQmw8324hzRnFyvAdPjCILF4aV2yuHK2r6AxtLdgN9lfklWIKkkVvQYpunpb1y5QgXLTLMSMEDzd3llObb7d+vmDdWpWUNRIkVUgnhf2P0hs2eFftHeIptyZKPVxasjZ/asgj6vSQAAIABJREFUYuT2yqmC+fMpWZJEVoPH5AAKNj0OAtQ/aU1cNJ5U/k++K+DEM0tWD/1jli1dYuET8hWrVamiuLFjqWWzppo7a5ZlkJCOhT2FJ5AJs7o/T+J0gXx5je60btXafpvJxTtHqITFpBqeEjDippT4UIiLgU/XBMAKTQkcFCDznud9tB4AYlOibfgeAWnCOsRc6ebuViJYr9S164xukfLF/Tyh2+Rc0opx9YpVVveHLUzSNKle0HuqIgglAHy6/6El+A1Sy5zhL/86dSwgXrMaLVOcJmFIdwQLnlXOD81mw+onCwWWf7EZAYvjzPEkPXicX2g64pYA3JLUAxP00zugx5GVv4AnFus4m3DuYM8hGEOHCm0OGo7NedBfiVg1FJe5B8B4ZREm5C/j1CHk1a1rFw3o20f+tWqoYJ486tCmnaZOnGztLcmBBuxQf+xonDD2Wx+HstIyNCU5rcSJsSmpoXWFdMzoMUx7u/Fsl3EgOJgHzA0Yj9WqWoE3Jhmd9WqbrYnZ49TVphasi66I9NelDxIdHgP/3BKwfwHQd9SYzh2WHty/p+ZNG1sN5afhwipSxAgG0iSJEipFsqRKlSK50V1u6Jo+bWplSEchcBp7njVzBiVOmEAfh/zYJogMD4xlXOs4dshNpCyneOEiVvkR25Myx+donjVq+EgDMi5wqgDovIbBzf9IlXKdSZQM4Ub/IpYTVGYxokSMZM4IKtEBEdSW7+KAYCNAb5C+VKLQyY6NzkLQwwaQUrUATTFgegCJMwDnkjvQboAZrYsWZXFpusVmx5Yjz5jrxCmBXQrtIlcToJHGRYYLtX/WVnLkKJO85G9SzUD8lecsOk2crZnzhIlWgW81qOPH260AaTTNZ/mOcycwerU6t40gFgwgGHS7wwFD4ynseDQ2LKRju3b2ulvnrpbBglcTamkd/ChOb9rMzpvGWlwDWh3mgHaBOqN1ASiUH21IKhzzj1ccsDEXaGGSzaHcMBsqgtyiA7yreLeJaffo3t3MGNp8siaEYuitS/f9+nXrm13K/8ggQsgDcAQ664mmQ5j16d3HzB9iziSA8BlG7FixLCwGsPk9mAACFSHGWrPmOHiwJRHMvEdWD4wNIRc9SjRjWqFDO10xKOIGnDQLJx577vSZN6az7wGYDux/+vEHLVow38IjObJlUZJECRQ7ZnS73XmMaFEUNfLnihk9qhLEi2sakrsvQ3/TpOLuy7Ft8lgsYpUm8TwpX/QCpcMZ5Tvx4sYzSsoisxBIPqgaGTpoWGxFWj9CU7jJDlkZ0KVE8eObhMRW5WZEeEUBXeL4Ca16gR6ouXPmMi8d9If4F98LFTKUkiZyyraIT7EA1krDWnTQw+ZlBzuab1F7WaqEk8mDLQIIGU42DRk1L0MT0Ds2JFTPHDee4mQ2A/TJcdc7nQqwg3FGYGMyN3gpCxNvwwucJ5898j00nxPmcNpvWHKAJwaJDYin2BlOZwWEBdIfwVC5Ir17nPpUNh8CyIanny6sgQoehBQMBru4eZMm5nSjQ571uKVTXuMmFj4jbMSxsekBG9oYbcV9Nt1iAhwu0EeuL3fOnAZ6mqKhdQDShx98aHFGQM6tL0hroyUM3k7yp7ldIR3tRgwdbiEvUjUJR1GPCRMhTQ/TBdCRJI+gowE0rIJqFzeezf/ZezApBATzCpNCq1rMsnIVY02sP7aqK5S7dOxsHl7Oi3pRWJV9BgdV8xaa6hGI/fv0sY4LmCncpftN/t4RmIDyhZ5zv4cXjvb88fvvdPXyJe3cvk3cjm5Avz5q0qihiCHmyeVlQPwidixFiviZUZZoUSJb6Q8BeLfNJHYFmxNpiNSG5mH4Y9uRVECbQUp0PotAJUgYQUGgQhPGjDWbExqKEwUJzCKSNUSCfOwYsex43I4P6cuk090bGw5nEJQJm5MubJYYEDKkaUwkJOlVfB5Kw8KZTeZFU+mcjt2GEyanl+Ntta52TtgDhxIeSTYI7nkbJCl44pduFUbQRye2mcXxxJLQns2T0O7JOII+mqc2W3b7bc4BZgAF47wYSHwe8eCSIGGDnFvP+4AbMDtU06GxRltf99h6nEMIEYQJgw2Lti9ZzClCRgi5ggjhA+MBiMYITDCQMOHE/zAVXGCS68xasT6cD8yDGzkBaDy3cb/4wjqx4zFv0rCh2c/sDcBM8jjCIUXS5Gb3s57EmREEpETCfgACnnfoL8yFXGqciJwrwIwRNXpg5g/gpOAa5xfXxX5ympiVNoECE0Jg1apW3cCJdx0h5fYXhs6iCBBmnBctSEhugUGwb3H2cUvIN3UAvRMw7aa0T5/pya+P9dP3P+iXH3/SLz/9pB+//95cw+5z2vzdvX1bXx0/YTechVJR/Io7nMlksQAcTbBoxQiVZJORbICXFDsLuwpPHcWpSH/oCVIutKcoGe8n8SlyZ0lixr7ALY7Ngq3CDVlpK/lJ2LCWIE61OTV1GOcIgUzpMhhY8MyFDxfObF6OT7yUzcZvotk4VxwKeIERHBavihffSowSeB5ZYPJwsYFxnXM+SGeEA21MGKSbxYwe3TYZv2mCI2ZMQdURNPyPR/I82YjOe7z/cvB+nFixzQ7DFoPe81s8xwHB+eC8ssf4CewcoY5oD2gcYRwcYSRRIJBSJk1ur6GA2Eh0BbCKE0/PI9bDYq2ZEDpZ5BWkGwHaHGHAXPKIoMA7jLYECGhqNB8mCoBk/RDEZNxwrggMvMxGV7t1N0eRe/8ThBm9ggE8xyTtDr8BYCM9j2qWmTNmmNbmnNG2rhaEFZw9fdr69qB1MRMIQ3Ht7Ana17DOH374oRWZ0/LUdVSZI48ugp6Bv4BEARgZzkz2KNSc9SbOakkFET9X9GjRbB2pIWWvwEg2rF3/Jooy8DPvBExuJPTLTz/r24ffBN52nLs5Xzx33opJCXUcP3rcOojhCuc27HgidwRsN8cGNZFUiFN6BS3BNiBO6Ve1qgXZyRRh4+DMoMkutz6n/IZNT0LCp2HDGoCiRY5iTZXwjpFKFyN6DNugVJQTVmGRcNGTOM0EslFpiX9gz147NotJnBFPIE20sG3Ip4VqAS40WI5sFDlns42B+9/VCqRfucnKSEp60WDnEmdlcD04JLARXTuR6yT9DBc6NiT3VqHLOQPKjoSngsJsvc5dzFmE4LJ7snhCLIRaGNAyGjLT7xa6ze/jvfU326eW5XLizkfa076FsIQTJ6xgti9ZLLbh8PLSyc6oN/1uHU8qAo5YJBoNeg3gYBasDckYaO9A728GWnw67VLcom+0IRqdDY+2hWq6QpVHtCdhEwQAx0ZTkbzODYnnzZ1noCU1j/WjIRuCihxUGmBh3wMefgs7E5PHLeXCQQjgsCHR3LAsnGpcX9rUac17ymcREgwcgwh1BAfC18wGGFCOnMqS0fFusz+orYWFxYge3UItCEqENA4ivPIwEM6LbLKVy1ZYp4Ov7z/Q8yfPnKZcgdD710/eGphPnz6122v/+MMPevjgge7evKVLFy7q5PETBjxuLIs3kcklDsXNWrlZzdQpU80pwQ1z2Ky05qfTGU6Els2aWTOumtVqmNcQicQCAwS8a9BM7EnsyratWzv2BI2WQ4U20LFhWCg+x2JgpwIqNi6eWjKFCLV8EiaccmTJapUo06ZOs9QsQMdCIEXRUmwCSpE4NpoWe5MFI10LIWHFvunSWSoZ32UzQZ8w/gkHsFEAqtli/nVtE0FrrPV/+w5GpaHnBMLbt3HuJoYUZx54H6cPjhdLoujQ0e7rAbugegYHF5/lEQ+sDXvdVu1aM9pYjNSyoOxWBO0Db3/g3Lqgo7p3dRw87m0NXPDjAe/Vg1tT9DFnGzSsR1dul+A4hugTzGftfc/z9m3aeOKxzo2ZsA+xsdigADlzBvocpVFa6wyY1uoyuREuaXKYIM4Ia+CBUVAQAMi5dkrzcCJRaIAHHmcQApb48pxZs2zvIGRhQSFDhrRYKZ0EWCv2ACESQIMJgWYleQGBBYVFsANYhDuAJJeZ9Ya50B8KVgFTgoHAPhDoLruJHy+uAREmAG1lrtmbaHC7L8radaZAiPHfunFTd2/dtoyfn3/4Uc/pnPeGf28MTCpKuHkQXQvo9cPtuy9duGDdwLg9uwWEly2z5lhUe+P9IrjKBmBjwcVxGhD3gV5gc6B1uEBiUywIi8jGh2agqaC0SGdsNJw7aBz6eHbr0tXsR2gFtiCtC2lfj6Zj8cJ6erpAzyj9wX77JFw4oyD0DFq7Zo1VprgVIwCMuBe1nbSrYJFYdJxKUEs0LK5waCG2j7tgfMehkA51RJIyoGa2oEFopfs/juVSy4TxE1qvUzaB8348o77u/91HfpcBZaIqn3mBjv7pSJAw8DPYZBYPTEJfoGRGv1Mm83TjsxzW5BYe4n+kyqEVcL44+a1O4y+EErTdpbjYbwzoLsN9zXf4LgyEz3OezjkntPPHuQK9c+m60flo0W2uSTLHA44mZs3ZN9yuEGcWVJtcadYW+xHWRcofr91B2h0F0TALgMb85/HyMu1FiAnBwx5i/qCcrDVaFWAyrBj7009MqENxMXkYCHnOk/lBi+I4RCPSoBwPNncmw5YlaYGKJ8wuBMTBfftNWV04d143r9/Qo4cPFdgU+g3A+cbAfPbsmX784Ue7hTt38OXGoEePHLUaR3rusOGpEMf9DnAwdqEceLHIKUQLFi5U2DQMQENysWEofGUjI8WQfmgoQMGEQHGYSBaL4D8alJgdd3CCHmJT4glzS7qYbCQqzhsmFVuOynYoIy57KCT3U0RjY89kykjdYCaTkASauR8GoOS3WTwSGLBtkNqxo8e0GCgBZLogQKlseGxJJD5ANVACyNhxTNKyGQGzC64/ejQAxotnUtr+bwB0wGWbGzDGR5InMq8kQgJKFXSwqbEbeURrAMikNO3yPLfXiZOYgEEjABiEBcc1oJuWSGCxPgSFO7geBrYy5XCOIApqx/J/R1ixhmgdtCLPGWiboAObOE5MbOboNq9s+uhRopiAZd25NpgPa+3ecwQPL0KUwgC8ndyzM64nrQ9BCssBoHjXaYQFcyF0A7vgJk14T7Nlzmz7LUbUqLY/MFkAIMLcambDfWJ7Bm3uVAJFsnnBpobO4vziuGhfvNMAkxaqJIBgihCXnj9nrjXzwvMPdT5x9JjOnz2r61eu6uv79/Xbr4/fAJLOR94KmGhLWlZev35dZ8+etTv8IqUoPh43dpyGDB5sVAda1rhBI9WuUcu0I7we7o3EwRmDVGZD2CLFiu04OKLHMMkEGJkYZ9I+sbgQPUehtK4kxgPGhHN3LECKcY/zh3o4BADCAIMdZw02LE2TyKoh5oe9hd0D0KHLCAYASDGz+7sEuKkMYJDkDDijRY5q8TViVSQp2PAAFO0OMNm0gPCPBpv63w3A4GoYzut1jWig8wAyKODe9jmA5tgO6J3wg6vRf//4EqQuWF9/DLwuQGyMIq6FHhBKrw9AyrpDM2Ek+AdMGHuAQooc54AmxrygQIEYLbFsfAjcugATCTYE8FlL1hFtjS+CG9OSD42y4J6fZF1RLQTLIS+We9cgvF3BjzDgfUDPQLAgHNhr7DnMJLzX7GEyunBY4mnF3gf4aE36E1E6SLhu9cqVJhzoM0t3dvYmvX4e3Luvx7/8DcCkBvOnn34yjXnjxg2dP3fe2j9gTy6Yv0ATJ0y0Nh3kJtLZjARuJrJKxYpWn4Yrnos0bZnaudUAG5lNzUKZ5xFaYwsUPhCYTCKAQatQ40alAlSXeB7OFWzIfXv2WACdvis4UGiIRAkREnTa1KkGXvq1MNFQLOwOKDOeUDaCQ12c3+H568CkSzuLhwZmQwFK95HnHMc0RFDtEAewBtUsLl31UFmjtK+C9T8NzKDgdEH6+uPrIPyj128LTNac9UZbAkobkaOYJiN8AluBOZg9nzatOaXoAAC15W5bZEJhZ+Nswy7H74B2nTxxos6dOWMxbPYG7VlgB3HjxDWnHj6D8OEQ+uGNyto6R4xogpm1QqggGKHO0F5CXTRawytPOiaOszo1yYt17slJogV5vFDZSePG2010Ce1x7xM0pgHzVFBgem6C+wZ68401Jsfitnuu1rx27Zror0nfTIK2lgg+cZKliCHdkCZQWWI7BOVxCFCpgE0JNeDCkXJIJ6gSEwM1BABMHPQCUDrpd6GsDIv/AVCC/tA6qDBAh/fjjcT5gbe1bZs2FpukLws2CjYQCwQomXSAzaaIGCGixdEAo6st+W2ocKSIEW3QXhHwRo0UxZGoHgoLMGNGc0AKMF8fXAtgNRqIbeqhhO4jAODa/3AYLYWavjqCUleu4c/HqxT2dY0K1eXYNDYzWuuxSV8Hpb12Ke+/+AyMxgDrETZ2jX/CHBw7M45jZ0aLYXQ2ukdr4nmFMaHNMC2wRZMlSqxUyZOb9sR7TMyZXFcas+FXmDVjhjkXyX6iNyz32sT7awkENGIzsyh8oMOJdXbGJ/osQnjT2i4ok9EWJlVqizWTjof3ncwffCLQaRx6TRs1MQrL/UTxvOIJxr6EudHTBwZJVdT+PXsNmGDE1Zi//vTzG3tm3wqYgBOvLODkviXXr14zCYUxzu21ueU2pVVQD5oq9+3T17I1cPyg/nH84LUk4GrUFoCmz2DU1mzNL+Ka7eHYiB5QfhzKjHm8rNzTAqkHUKAmSFW0Lt8lvxW3NQ4KvKds2gRx49rGxz6i2XPc2F+YtkMDOmB0qLJJ0E8/NSnqaMwIr1DZmNGiKU5MbCPHbnqFulLiYzaZsznJrWU49luCwI2PQAnULPHiGTBcp8wrj4lp4vzHwAoEYpIkZkcCsFeGpxH0K++9/hl77QLeAebrlBmwGmA9Nujv6a1jn7rvu9fmApI1MbbwJ1TWcQDFMsEGfYTSoiUZrA30EoCyDwArQi5JoiR2IyacP9zICcZUhOqVwkXMA0y3PBgVe4FjYoJgP9rNjLmJMV72MGFM2NO1wBhQ1KimJdk7UOOsmTJZFhIhG/YpTh72LWmS2JM4kMgego0hGOjAPmfmbNv3ZJqhKamMIYHl8KFD5lkGmNevXtWD+/ctzq9nTiLOv1Oabw1MDgitJYb5/aPvdP/uXYtbHj540NoOcl8HnDHkrdJnE7uOLA14OPG5Th07ecIj9czdTPoU/J2JJpAMfYFOkKXDokBt0J6EPFwPGkXMSD1buIifGxUiv5IFMU1m2sxxLgBiDH1baBbbRgR9HsEBHwsElQJ0bCgGGyxhgoRKmjipBd3RuBZoz0B3cueelJyrE8fLEZgqZ0F1zz0o3ed4Bi3wbnV+VGp4Bt0P3nLYfT9eaXnp3IfEaX/58jlebrrzEWPEwxl0mNcz6K0P8IJ6PKFcjxui4hFvNdcJ9XfaZDq3iGAO3IFgZW4ABU4bbDPMDTQPI9B762kqjecXDyeOqcRm6zq2tCtkcazBRFgXAATdZLBuaD/MCftMoPMIYEcLvF8m2hbHHzFKnELsk0if42F3aDMUmt+CPXHO+D3wReCfIL+ZJBeLQ3fsqF49nVsnEA2YNHGSRRzmzZ5j6YFkI21ctz5QO+KFPbh/vw4dPKhjR47o1ImTRrtJYrlz65a+f/RIj3/55Y1DJn8JmC7aXzx7riePH+ubBw8tiwbpYPHM/QeMY2/bstW6A6xcttyS0XHYULhKYi8lPnhVMZ6J8VmSeB1/mxzuSUj+JFk/9CSFdiGBsUXNw0eg2ZMNAxjxmrqgxOZDwpqX1AMyVyOwIcydnzaNtZVgQyIQ8ubOZaEbKDHDySv19VSnO3mj2MvEwVg4SrCgzsTtmlrDpaZGoaA5rw/3rsvUjZL0DRX7q4PO8YQD3OSC3z1yZ+em5Ks2dpIN7G7Onrs412/gubuzc4dnbuKEd9FNwqapFI4xYrCYAHazWW63Z7fa47Z8zq32qJwhPc0deCnJbHHyhsuqXFnnLmHc6awsnfa5z6YnY8aqWTw9gehZRBIDGg9gkEUDSHD4ABjWCU2GBoTxBNqlgWsd3XHAxYgR6P1FmOPxxaxgDySIl8Diz/TCJUGEJAA6C5JUQYyUpAzikNiv2Iojhw83WkpMkqIH8m1poIUfhfg87VP37N5tDZ5pr8k4fuyYhQwBIgMMXDh7TpfOnzdv7K3rN83xA40FK076qougP398J2C6t7Z+8utvevjga9EGHnqLlLh47pydKAbw4QMHLSUKTxXt5+laTbocmpXYD/ycztV4tsjCJ+RCYjAtCKnoIGmYbBWrg/MlRYoFd+6/SMUG8UxSvtgE/I+cVqpFqNhgATgGgMKThsFOsN2C6X36WAoYGp1QChUZaHjisKQNQlWozOCW4NgyeJ8XzJ2nhQsWaNGCRVq0YIG1JMEBhdBhQV8ffJ7/EUvjWv/qIFGDY3MOMBFupvSHY/oMs704Z7ySBNbd4byeYk4Urm3CWG7aOk4Txjp3Vh47eqzd4Wr0iFGWjYXNRoYSa4JpwoDGkTb3cgyyeDUZTGxumBFOOKp7yFWmiRaxPsto6tXbKnyskoUkhS5dLWnB4tzNmtl645fAuYJvAiHBurOurHNpu8+mc+9T/BUlijk9eikUIC6OR54cVqo+8Mw3rt/Q1rxtqzb2O18OGGSxcEoJmUt6DLMPsQkp0IaC0oeWDDPyWk8eO2a3QDjz1SmdP3PGQh9nz5yxKhGcTGQn4QW+eP68Lp6/oIsXLlg3jJvXrltywf07d/X1vQeWtUaohJ6yKLO/vx7Tve/f8xf67ddfxS3vHty9r6/v3bfO6TevX9flixdFkPXsqTPiApEoZ06dsudoV1L16B1KkgI3CmWSNqzfYIkEZPqQy0rdIp258bq5pU4Txo6zTQXXJ4ZEOROGOKl9bDaAxQKQYws4uI03xjnHZjGQgtsCArRv9x6Hghw4qCOHjtj5sCgnjh037W+S8ORXdr4UNzPwDCIVGecZp8/qLOPU6T8ddt1c/18ctOMnxdFuZnPihLgd3O/HcYudHT9yzDYWlOoPx+EjlnhB8sWRg4dsIP0PHThondygZGxQ8okZODJYH4ZpjV27bROzkRnuLejQKvTuZR1JHncHm37b1q0W6mDescVYA6ggvom1q1cbSMjeIp+VKqC5s+aIQvmpkyeboCRGzvpCK/GCksAyavhwEyBuqiP7gL7Ds2fMNGG/dOEirVq+3IogzP7btl379+032481Zm1tPc+eM3OMvXrl4iVdvXTZBgqG50EfeW6vL182EN64dl13bt6ycff2Hase4f6YpKn++P0P+vmnnyyxIBCQ/6IGM6j+fDeNGQSYVGeTzP7rz7/Y4N6Aj775xgBKWhLZD2hTDOHrV66InNprPF65Ziqf18QbuWiAzOZnEzOBbCC7Mahnc+zZtds2Axtgx7ZtBmbiWww2AEkEu3buso20f88+HTt8WCeOArTjdr8JA9a587p8wbMQl6/Yed26fkO3PZN859Zt2UTfuWuT/eDuPbsWpOC9O3fEI/b1PV7fvmOf5Tr/bHDcdxm2+J5zumO/x/n9ftj/POfhbpjXHzkP0sVu37gprpnB+rDJWCOe37558+X52mdv6PaNG0IbwIxuXL3uDF7bujpsCQ8k68otCdzhvMe6O4P/s86kcpI9BiBYe1v3s+cMLBQ8mNCGMiIw9u0z88gFPmsM8LmdAgKBQYgCIXJw736PwD2go0eOWPEEQpN1J1Xu+uWrzv5j3a9ctevhurhm1o/1dNeVtWYfMK/sCdsXnnVwgHjXkgcAI4rp0Tff6odH31kRx9Pfnug5GpKb1zqFWEGx9y+fvxsw3UPzo6+A9IVePH2mp49/c0D6w49m/AJUOoWR1OtudAKv7qBWjc0WuJEM0DfN3RwoxS5eCrKIZ41WEMRFI5nGQqMhAc9fsM+x6CwG30cosCHv3HQm38B15679Pnm/SLlHQcc3ntc8Bo5vbfJfvg7yv6Dffe35t18/1PsYLP77HJgg7iA7xV0LWA+bzd1w7m/y2hhRkHVjPe191tXev2fCjPX8o/Hg3j0x3P89uOsIOQSdjTt3bZ0M8B4wA+TL0EUb5w3ELmOBUhqttHV3BK4Detb+soHQAd6tV4AF6NiH7nXzyLXYtX79UN99863RUMDmDoopAB7akIoqGmyhhKik+vXnn005PX/y9FUnz1uCElj9bcAMClSSdzF88UpRjcIFcXF2gd99bxfJheLlBRzuBgbEbBoDMQAybXXXJvfWzVv/r72zbU4TiKLw//+VbdJ+azQYEYEYt/Oc3YMLwaho26FDZu5chGX33nNf2UgSaJUx3rOq8Ddle7I+lYCqoOqVMh5OQPAReBvALYqwLTbiyAO4VPu62ocarsq/Czy077c5lWHP2N65/PrYcamtctb4kjDyBcIRHkVgnhOYYAPTm/DZdA7IuoyP5wthJxw34Bix1L3r11CsceqJtFor0LG7OxRVeSo7Vfv5Kfx84jkuVvAfqvLfdU12zzoYKh/BrgTz60X2x7+UgFdr6YoOOaGjX2OU/fEB064KTVWp6FAReW7kzRF8vGtXXbDMr2xfPfxxgclMzgo59/mPo4SmirIrhTLQe9NIQb7cSxsMNdVe3ykUJ0iqvUAhoCEcVwH1WsRsRiAnIquR0bjOO6Hw8o2sFgOv2kWAFXhpbq+ntgNwJWMEWpkPWTHAVGqj8azz/bwNyHovSY5cV+yieZtol6bpdM7XwlZsZLCnAJFw6YyiXsiVbJrsabvewpm/3JayJfbkVw1wVTBsnFUw2z7yl7BKvsCY3WarKmbfie8L75SA0QO5rUfOfQ2dCLgeHaKPKAhpU03+Oz55dN1x/JiK+ZUAx+OnNjevpt2xevHxsfqHnym4AUkOlByEKnyi6CgCtG31tvhBgdEqIRB0osNHTBQZ13MA4B7GZejkHLTssz9v25FQr9ENzIwjrzHldsttbYedwHF67Mzb/nlS6I7rNrwniomCAHPCIGnU2nAhsSLf8eB/D6ZBAAABEUlEQVREG/mnoJJO6BWpw8HYDLmxynWbZWBisNxo1zjA2JhkMIJNRqpbZeyYtWudc5Zz5bMTnTIbD+P/IPiMwb38UbJbDjudne3S/Lkz+tj35Db2tSmc+Zhr+MMpk9cUTxssbLJkpIRO0LljS8edL5yTzXMP1/fnMazG5PX4CfzPV8yeUEZ1AjeItBbq61NLnNo6qihB2IEuJ2E3bMzIE9bvPGLqvT0g7vgwdf3hfedEGI4bfnZwZLj2nNLjz80/h/PocOnHeppfGn/b9b8cmLcJ1xst/al0p6yo1sMBa65s27tz+bAgMDsE5hOYQOvkZD47uBeBFwSuQ2BegXmdTsuoBYHZI7AE5uxNuCjwPyLwG0xN0InFe6mVAAAAAElFTkSuQmCC;" vertex="1" parent="1">
          <mxGeometry x="57" y="290" width="182.95" height="70" as="geometry" />
        </mxCell>
        <mxCell id="-1aNArAHK49JRfU5nT5b-3" value="" style="shape=image;html=1;verticalAlign=top;verticalLabelPosition=bottom;labelBackgroundColor=#ffffff;imageAspect=0;aspect=fixed;image=https://cdn4.iconfinder.com/data/icons/music-ui-solid-24px/24/radio_signal_antenna_broadcast-2-128.png" vertex="1" parent="1">
          <mxGeometry x="117" y="260" width="40" height="40" as="geometry" />
        </mxCell>
        <mxCell id="-1aNArAHK49JRfU5nT5b-4" value="TCU" style="rounded=1;whiteSpace=wrap;html=1;fillColor=#fff2cc;strokeColor=#d6b656;" vertex="1" parent="1">
          <mxGeometry x="117" y="320" width="40" height="20" as="geometry" />
        </mxCell>
        <mxCell id="-1aNArAHK49JRfU5nT5b-7" value="" style="endArrow=none;dashed=1;html=1;rounded=0;" edge="1" parent="1">
          <mxGeometry width="50" height="50" relative="1" as="geometry">
            <mxPoint x="136.5" y="320" as="sourcePoint" />
            <mxPoint x="136.5" y="290" as="targetPoint" />
          </mxGeometry>
        </mxCell>
        <mxCell id="-1aNArAHK49JRfU5nT5b-8" value="Customer" style="shape=umlActor;verticalLabelPosition=bottom;verticalAlign=top;html=1;outlineConnect=0;" vertex="1" parent="1">
          <mxGeometry x="117" y="400" width="30" height="60" as="geometry" />
        </mxCell>
        <mxCell id="-1aNArAHK49JRfU5nT5b-9" value="" style="shape=image;html=1;verticalAlign=top;verticalLabelPosition=bottom;labelBackgroundColor=#ffffff;imageAspect=0;aspect=fixed;image=https://cdn2.iconfinder.com/data/icons/mobile-smart-phone/64/mobile_cell_tower_connection_3g_4g_5g-128.png" vertex="1" parent="1">
          <mxGeometry x="190" y="170" width="70" height="70" as="geometry" />
        </mxCell>
        <mxCell id="-1aNArAHK49JRfU5nT5b-10" value="" style="shape=image;html=1;verticalAlign=top;verticalLabelPosition=bottom;labelBackgroundColor=#ffffff;imageAspect=0;aspect=fixed;image=https://cdn3.iconfinder.com/data/icons/tiny-weather-1/512/flash-128.png;rotation=-150;" vertex="1" parent="1">
          <mxGeometry x="150" y="222" width="68" height="68" as="geometry" />
        </mxCell>
        <mxCell id="-1aNArAHK49JRfU5nT5b-14" value="" style="rounded=0;whiteSpace=wrap;html=1;" vertex="1" parent="1">
          <mxGeometry x="320" y="80" width="340" height="200" as="geometry" />
        </mxCell>
        <mxCell id="-1aNArAHK49JRfU5nT5b-17" value="" style="shape=image;verticalLabelPosition=bottom;labelBackgroundColor=#ffffff;verticalAlign=top;aspect=fixed;imageAspect=0;image=https://www.gocariq.com/wp-content/uploads/2021/10/cropped-CarIQ-Logo-RGBR.png;" vertex="1" parent="1">
          <mxGeometry x="330" y="90" width="70" height="22.48" as="geometry" />
        </mxCell>
        <mxCell id="-1aNArAHK49JRfU5nT5b-19" value="" style="endArrow=classic;startArrow=classic;html=1;rounded=0;fontSize=10;fillColor=#fff2cc;strokeColor=#d6b656;strokeWidth=3;" edge="1" parent="1">
          <mxGeometry width="50" height="50" relative="1" as="geometry">
            <mxPoint x="260" y="200" as="sourcePoint" />
            <mxPoint x="310" y="200" as="targetPoint" />
          </mxGeometry>
        </mxCell>
        <mxCell id="-1aNArAHK49JRfU5nT5b-20" value="&lt;div&gt;Identity /&lt;/div&gt;&lt;div&gt;Authentication /&lt;/div&gt;&lt;div&gt;Service Validation&lt;/div&gt;" style="rounded=1;whiteSpace=wrap;html=1;fontSize=10;fillColor=#d5e8d4;strokeColor=#82b366;" vertex="1" parent="1">
          <mxGeometry x="430" y="130" width="88" height="60" as="geometry" />
        </mxCell>
        <mxCell id="-1aNArAHK49JRfU5nT5b-21" value="&lt;div&gt;Geofence Map&lt;/div&gt;" style="rounded=1;whiteSpace=wrap;html=1;fontSize=10;fillColor=#d5e8d4;strokeColor=#82b366;" vertex="1" parent="1">
          <mxGeometry x="430" y="210" width="88" height="60" as="geometry" />
        </mxCell>
        <mxCell id="-1aNArAHK49JRfU5nT5b-22" value="&lt;div&gt;Payment Services&lt;/div&gt;" style="rounded=1;whiteSpace=wrap;html=1;fontSize=10;fillColor=#f5f5f5;strokeColor=#666666;fontColor=#333333;" vertex="1" parent="1">
          <mxGeometry x="530" y="130" width="120" height="60" as="geometry" />
        </mxCell>
        <mxCell id="-1aNArAHK49JRfU5nT5b-23" value="&lt;div&gt;Merchant Onboarding&lt;/div&gt;" style="rounded=1;whiteSpace=wrap;html=1;fontSize=10;fillColor=#f5f5f5;strokeColor=#666666;fontColor=#333333;" vertex="1" parent="1">
          <mxGeometry x="530" y="210" width="120" height="60" as="geometry" />
        </mxCell>
        <mxCell id="-1aNArAHK49JRfU5nT5b-24" value="&lt;div&gt;(Bulk/Single) Vehicle Onboarding&lt;/div&gt;" style="rounded=1;whiteSpace=wrap;html=1;fontSize=10;fillColor=#d5e8d4;strokeColor=#82b366;" vertex="1" parent="1">
          <mxGeometry x="330" y="130" width="90" height="60" as="geometry" />
        </mxCell>
        <mxCell id="-1aNArAHK49JRfU5nT5b-27" value="Cloud" style="html=1;strokeColor=none;fillColor=#0079D6;labelPosition=center;verticalLabelPosition=middle;verticalAlign=top;align=center;fontSize=12;outlineConnect=0;spacingTop=-6;fontColor=#FFFFFF;sketch=0;shape=mxgraph.sitemap.cloud;" vertex="1" parent="1">
          <mxGeometry x="600" y="80.24" width="60" height="40" as="geometry" />
        </mxCell>
        <mxCell id="-1aNArAHK49JRfU5nT5b-28" value="1. User &lt;b&gt;registers in CarIQ&lt;/b&gt;&lt;br&gt;&lt;br&gt;2. User &lt;b&gt;completes KYC &lt;/b&gt;process in Car IQ&lt;br&gt;&lt;br&gt;3. User &lt;b&gt;adds one/more vehicles&lt;/b&gt; to the account&lt;br&gt;&lt;blockquote style=&quot;margin: 0 0 0 40px ; border: none ; padding: 0px&quot;&gt;a. &lt;font color=&quot;#ffb366&quot;&gt;Vehicle must be connected to a compatible telematics service platform to exchange data with Car IQ.&lt;/font&gt;&lt;/blockquote&gt;&lt;br&gt;4. A &lt;b&gt;pre-defined period&lt;/b&gt; of telemetry data collection from the B2B integration - by Car IQ&lt;br&gt;&lt;br&gt;5. &lt;b&gt;Vehicle Identity is created&lt;/b&gt; with static dataset (VIN, &amp;lt;addn. serial part numbers&amp;gt;) + dynamic (&amp;lt;telemetry data&amp;gt;) in Car IQ&lt;br&gt;&lt;br&gt;6. User &lt;b&gt;creates Rules&lt;/b&gt; in Car IQ, by categories - approved geofences to operate, limit per Tx, configurable service/merchant list" style="text;html=1;strokeColor=default;fillColor=none;align=left;verticalAlign=middle;whiteSpace=wrap;rounded=0;fontSize=10;dashed=1;" vertex="1" parent="1">
          <mxGeometry x="239.95" y="320" width="220.05" height="250" as="geometry" />
        </mxCell>
        <mxCell id="-1aNArAHK49JRfU5nT5b-29" value="" style="edgeStyle=segmentEdgeStyle;endArrow=classic;html=1;rounded=0;fontSize=10;strokeWidth=2;entryX=0.5;entryY=1;entryDx=0;entryDy=0;exitX=0.996;exitY=0.376;exitDx=0;exitDy=0;exitPerimeter=0;dashed=1;" edge="1" parent="1" source="-1aNArAHK49JRfU5nT5b-28" target="-1aNArAHK49JRfU5nT5b-14">
          <mxGeometry width="50" height="50" relative="1" as="geometry">
            <mxPoint x="460" y="400" as="sourcePoint" />
            <mxPoint x="510" y="350" as="targetPoint" />
          </mxGeometry>
        </mxCell>
        <mxCell id="-1aNArAHK49JRfU5nT5b-31" value="" style="endArrow=classic;html=1;rounded=0;fontSize=10;fontColor=#FFB366;strokeWidth=2;entryX=0;entryY=0.5;entryDx=0;entryDy=0;dashed=1;" edge="1" parent="1" target="-1aNArAHK49JRfU5nT5b-28">
          <mxGeometry width="50" height="50" relative="1" as="geometry">
            <mxPoint x="160" y="445" as="sourcePoint" />
            <mxPoint x="210" y="410" as="targetPoint" />
          </mxGeometry>
        </mxCell>
        <mxCell id="-1aNArAHK49JRfU5nT5b-32" value="&lt;font style=&quot;font-size: 12px&quot;&gt;USE CASES&lt;/font&gt;&lt;br&gt;&lt;br&gt;1.(&lt;i&gt;Data plane&lt;/i&gt;)&amp;nbsp;&lt;b&gt;&lt;font color=&quot;#6666ff&quot;&gt;Implicit Authentication&lt;/font&gt;&lt;/b&gt; - authentication using Car IQ algorithm, that uses vehicle static marker + dynamic content ( from Bus signals &amp;amp; Diagnostic data)&lt;br&gt;&lt;br&gt;2. (&lt;i&gt;Data plane&lt;/i&gt;)&amp;nbsp;&lt;font color=&quot;#6666ff&quot;&gt;&lt;b&gt;Continuous Authentication&lt;/b&gt;&lt;/font&gt; - using vehicle state model and telemetry data&lt;br&gt;&lt;br&gt;3. (&lt;i&gt;Control &amp;amp; Config&lt;/i&gt;) Geofence Updates - ever updating" style="text;html=1;strokeColor=#6c8ebf;fillColor=#dae8fc;align=left;verticalAlign=middle;whiteSpace=wrap;rounded=0;fontSize=10;dashed=1;" vertex="1" parent="1">
          <mxGeometry x="560" y="320" width="220.05" height="250" as="geometry" />
        </mxCell>
        <mxCell id="-1aNArAHK49JRfU5nT5b-33" value="&lt;div&gt;Vehicle State Model&lt;/div&gt;" style="rounded=1;whiteSpace=wrap;html=1;fontSize=10;fillColor=#d5e8d4;strokeColor=#82b366;" vertex="1" parent="1">
          <mxGeometry x="330" y="210" width="90" height="60" as="geometry" />
        </mxCell>
      </root>
    </mxGraphModel>
  </diagram>
</mxfile>
